<svg xmlns="http://www.w3.org/2000/svg" xmlns:xlink="http://www.w3.org/1999/xlink" width="42" height="42" viewBox="0 0 42 42">
  <defs>
    <linearGradient id="linear-gradient" x1="0.5" x2="0.5" y2="0.845" gradientUnits="objectBoundingBox">
      <stop offset="0.013" stop-color="#32bdd9"/>
      <stop offset="0.99" stop-color="#125562"/>
    </linearGradient>
    <linearGradient id="linear-gradient-2" x1="0.938" y1="0.045" x2="0.109" y2="1" gradientUnits="objectBoundingBox">
      <stop offset="0" stop-color="#2fb3cd"/>
      <stop offset="1" stop-color="#155d6c"/>
    </linearGradient>
    <linearGradient id="linear-gradient-3" x1="0.5" x2="0.5" y2="1" gradientUnits="objectBoundingBox">
      <stop offset="0" stop-color="#2eafc8"/>
      <stop offset="1" stop-color="#196878"/>
    </linearGradient>
  </defs>
  <g id="Group_1355" data-name="Group 1355" transform="translate(-1020 -7100)">
    <rect id="Rectangle_161" data-name="Rectangle 161" width="42" height="42" transform="translate(1020 7100)" fill="none"/>
    <g id="_1_medify_logo" data-name="1 medify logo" transform="translate(1003 7080)">
      <g id="Group_268" data-name="Group 268" transform="translate(20.127 34.912)">
        <path id="Path_1559" data-name="Path 1559" d="M20.638,77.313a1.954,1.954,0,0,1,1.974-1.934l1.927.02a2.134,2.134,0,0,1,.576.085h0c2.176.47,4.96,2.033,5.933,4.355l.01.023a12.187,12.187,0,0,1,.987,3.98c.027,1.334.012,2.248,0,2.725v.3l-.017,1.01-.348-.921H26.553v.008l-4.059-.042a1.955,1.955,0,0,1-1.934-1.975Z" transform="translate(-20.559 -75.379)" fill-rule="evenodd" fill="url(#linear-gradient)"/>
      </g>
      <g id="Group_269" data-name="Group 269" transform="translate(31.712 34.052)">
        <path id="Path_1560" data-name="Path 1560" d="M86.9,74.077A22.711,22.711,0,0,0,88.572,71.6l-.067.708h4.3a2.1,2.1,0,0,1,1.76,1.769c.029,2.388,0,7.391,0,8.314a1.794,1.794,0,0,1-1.584,1.68H82.941V94.154c0,1.327-1.32,1.415-1.672,1.415H73.615c-1.76,0-2.1-.973-2.112-1.415-.088-2.477,1.408-5.094,2.2-6.368a37.1,37.1,0,0,1,6.775-7.341A86,86,0,0,0,86.9,74.077Z" transform="translate(-71.499 -71.601)" fill="url(#linear-gradient-2)"/>
      </g>
      <g id="Group_270" data-name="Group 270" transform="translate(20 27.933)">
        <path id="Path_1561" data-name="Path 1561" d="M20,44.926c2.2,5.226,6.038,5.551,7.3,5.064.1-.6-2.045-2.456-3.132-3.311.778.011,2.971,1.472,3.972,2.3C27.336,44.439,22.379,44.385,20,44.926Z" transform="translate(-20 -44.693)" fill="#155f6d"/>
      </g>
      <g id="Group_271" data-name="Group 271" transform="translate(47.834 24.37)">
        <path id="Path_1562" data-name="Path 1562" d="M150.946,29.024c-7.138,0-8.671,4.519-8.545,6.778a11.489,11.489,0,0,1,4.243-3.74,8.062,8.062,0,0,0-2.936,4.529C149.034,36.17,150.753,31.371,150.946,29.024Z" transform="translate(-142.394 -29.024)" fill="#155f6d"/>
      </g>
      <path id="Subtraction_1" data-name="Subtraction 1" d="M-981.085-8465.52a8.93,8.93,0,0,1-6.244-3.013c-.4-.409-1.239-1.41-1.671-1.945l1.645,1.133v-9.7A1.956,1.956,0,0,1-985.4-8481h7.914a1.956,1.956,0,0,1,1.954,1.953v9.719h1.49a14.194,14.194,0,0,1-4.661,3.361A6.657,6.657,0,0,1-981.085-8465.52Zm-.435-7.259a2.826,2.826,0,0,0-2.816,2.831,2.826,2.826,0,0,0,2.816,2.831,2.826,2.826,0,0,0,2.816-2.831A2.826,2.826,0,0,0-981.52-8472.778Z" transform="translate(1019.006 8504)" fill="url(#linear-gradient-3)"/>
    </g>
  </g>
</svg>
